<svg id="Capa_1" enable-background="new 0 0 510.752 510.752" height="512" viewBox="0 0 510.752 510.752" width="512" xmlns="http://www.w3.org/2000/svg"><g id="XMLID_160_"><path id="XMLID_161_" d="m396.191 185.652v-36.363h-61.595v-29.745h27.606v-30h-29.628c-15.427 0-27.978 12.551-27.978 27.978v31.768h-62.906v36.363h154.501z"/><path id="XMLID_268_" d="m141.646 220.062-22.05-46.287h-62.307v78.601h33.703z"/><path id="XMLID_283_" d="m57.289 343.376v77.833h62.307l22.05-46.287-49.45-31.546z"/><path id="XMLID_297_" d="m435.063 215.652h-8.871v163.956h2.445c45.279 0 82.116-36.837 82.116-82.115-.001-43.115-33.407-78.549-75.69-81.841z"/><path id="XMLID_328_" d="m396.191 215.652h-191.85l-104.138 66.433v.291h-.456l-.182.116h-69.565v-44.257h-30v118.513h30v-44.256h69.564l105.208 67.115h191.418v-163.955zm-177.64 96.84c-8.409 0-14.636-6.873-15-15-.363-8.101 7.154-15 15-15 8.409 0 14.636 6.873 15 15 .363 8.101-7.154 15-15 15zm65.296 0c-8.409 0-14.636-6.873-15-15-.363-8.101 7.154-15 15-15 8.409 0 14.636 6.873 15 15 .363 8.101-7.154 15-15 15zm65.296 0c-8.409 0-14.636-6.873-15-15-.363-8.101 7.154-15 15-15 8.409 0 14.636 6.873 15 15 .363 8.101-7.154 15-15 15z"/></g></svg>