<svg id="Capa_1" enable-background="new 0 0 510.405 510.405" height="512" viewBox="0 0 510.405 510.405" width="512" xmlns="http://www.w3.org/2000/svg"><g id="XMLID_1638_"><path id="XMLID_1644_" d="m422.927 209.84h-12.424v-60.726h-75.907v-29.744h27.606v-30h-29.628c-15.427 0-27.978 12.551-27.978 27.978v31.768h-75.906v60.726h-47.164l-34.257 21.854-27.673-58.093h-62.307v108.718h-27.289v-44.257h-30v118.513h30v-44.256h27.289v108.717h62.308l27.673-58.093 34.257 21.853h241.401c48.235 0 87.478-39.242 87.478-87.478s-39.243-87.48-87.479-87.48zm-164.237-30.725h121.813v30.726h-121.813zm-158.033 24.486 21.127 44.351-34.496 22.006v-66.356h13.369zm0 187.435h-13.368v-66.356l34.495 22.005zm-.478-93.717 90.101-57.479h205.911v114.956h-205.911zm326.012 57.379v-114.759c30.18 1.699 54.214 26.782 54.214 57.38s-24.034 55.68-54.214 57.379z"/><path id="XMLID_1649_" d="m218.551 282.318c-7.846 0-15.363 6.899-15 15 .364 8.127 6.591 15 15 15 7.846 0 15.363-6.899 15-15-.364-8.127-6.591-15-15-15z"/><path id="XMLID_1650_" d="m283.847 282.318c-7.846 0-15.363 6.899-15 15 .364 8.127 6.591 15 15 15 7.846 0 15.363-6.899 15-15-.364-8.127-6.591-15-15-15z"/><path id="XMLID_1651_" d="m349.143 282.318c-7.846 0-15.363 6.899-15 15 .364 8.127 6.591 15 15 15 7.846 0 15.363-6.899 15-15-.364-8.127-6.591-15-15-15z"/></g></svg>