<?xml version="1.0" encoding="UTF-8" standalone="no"?>
<!DOCTYPE svg PUBLIC "-//W3C//DTD SVG 1.1//EN" "http://www.w3.org/Graphics/SVG/1.1/DTD/svg11.dtd">
<svg version="1.1" xmlns="http://www.w3.org/2000/svg" xmlns:xlink="http://www.w3.org/1999/xlink" preserveAspectRatio="xMidYMid meet" viewBox="0 0 640 640" width="640" height="640"><defs><path d="M322.13 71.08L324.34 71.27L326.54 71.54L328.73 71.91L330.91 72.35L333.08 72.88L335.23 73.49L337.35 74.19L339.46 74.98L341.54 75.84L343.59 76.8L345.61 77.84L347.6 78.96L349.55 80.17L351.46 81.46L353.33 82.84L355.16 84.3L356.94 85.85L358.67 87.48L442.52 169.8L444.19 171.5L445.77 173.25L447.26 175.05L448.68 176.89L450 178.78L451.25 180.71L452.41 182.68L453.48 184.68L454.47 186.71L455.38 188.77L456.2 190.86L456.94 192.98L457.59 195.11L458.16 197.27L458.65 199.44L459.05 201.63L459.37 203.82L459.6 206.03L459.74 208.24L459.81 210.46L459.8 211L459.85 211.33L460.14 214.16L460.31 217.03L460.37 219.92L460.37 569.81L460.31 572.71L460.14 575.57L459.85 578.4L459.45 581.2L458.94 583.96L458.33 586.68L457.61 589.36L456.79 592L455.87 594.59L454.85 597.13L453.74 599.63L452.54 602.07L451.24 604.46L449.86 606.79L448.38 609.06L446.83 611.27L445.19 613.41L443.48 615.49L441.68 617.5L439.81 619.44L437.87 621.31L435.86 623.11L433.78 624.82L431.64 626.46L429.43 628.01L427.16 629.48L424.83 630.87L422.44 632.17L420 633.37L417.5 634.48L414.96 635.5L412.37 636.42L409.73 637.24L407.05 637.96L404.33 638.57L401.57 639.08L398.77 639.48L395.94 639.77L393.08 639.94L390.19 640L249.81 640L246.92 639.94L244.06 639.77L241.23 639.48L238.43 639.08L235.67 638.57L232.95 637.96L230.27 637.24L227.63 636.42L225.04 635.5L222.5 634.48L220 633.37L217.56 632.17L215.17 630.87L212.84 629.48L210.57 628.01L208.36 626.46L206.22 624.82L204.14 623.11L202.13 621.31L200.19 619.44L198.32 617.5L196.52 615.49L194.81 613.41L193.17 611.27L191.62 609.06L190.14 606.79L188.76 604.46L187.46 602.07L186.26 599.63L185.15 597.13L184.13 594.59L183.21 592L182.39 589.36L181.67 586.68L181.06 583.96L180.55 581.2L180.15 578.4L179.86 575.57L179.69 572.71L179.63 569.81L179.63 219.92L179.69 217.03L179.79 215.29L179.69 213.81L179.63 211.59L179.65 209.38L179.76 207.16L179.95 204.95L180.23 202.75L180.59 200.56L181.03 198.38L181.56 196.21L182.18 194.07L182.87 191.94L183.66 189.83L184.53 187.75L185.48 185.7L186.52 183.68L187.64 181.7L188.85 179.75L190.14 177.83L191.52 175.96L192.98 174.13L194.53 172.35L196.16 170.62L277.04 88.23L278.74 86.57L280.49 84.99L282.29 83.49L284.14 82.08L286.03 80.75L287.95 79.51L289.92 78.35L291.92 77.28L293.95 76.28L296.02 75.38L298.11 74.56L300.22 73.82L302.36 73.16L304.51 72.59L306.68 72.11L308.87 71.71L311.07 71.39L313.27 71.16L315.48 71.01L317.7 70.95L319.92 70.97L322.13 71.08Z" id="bgGAKAynz"></path></defs><g><g><g><use xlink:href="#bgGAKAynz" opacity="1" fill="#d76190" fill-opacity="1"></use></g></g></g></svg>